<svg xmlns="http://www.w3.org/2000/svg" viewBox="0 0 1920 850" width="1920" height="850">
    <style>
        tspan {
            white-space: pre
        }

        .shp0 {
            fill: #2078c2
        }

        .shp1 {
            fill: #111941
        }
    </style>
    <g>
        <g>
            <g>
                <g>
                    <path fill-rule="evenodd" class="shp0"
                        d="M109.99 807.43C109.99 825.42 101.51 846.88 61.04 846.88L0.17 846.88L0.17 719.05L61.04 719.05C89.45 719.05 106.42 733.61 106.42 757.98C106.42 767.1 102.63 774.98 95.76 780.48C106 787.47 109.99 799.88 109.99 807.43ZM31.14 817.11L61.04 817.11C62.86 817.11 78.86 816.82 78.86 807.26C78.86 799.91 68.48 795.38 61.04 795.38L31.14 795.38L31.14 817.11ZM75.3 758.48C75.3 754.96 72.31 748.3 61.04 748.3L31.14 748.3L31.14 766.81L61.04 766.81C75.3 766.81 75.3 760.55 75.3 758.48Z" />
                    <path class="shp0"
                        d="M207.51 791.8C207.51 802.39 204.31 820.17 182.89 820.17C166.16 820.17 156.56 809.81 156.56 791.8L156.56 719.22L125.43 719.22L125.43 791.8C125.43 826.8 147.92 849.43 182.72 849.43C217.21 849.43 238.65 827.35 238.65 791.8L238.65 719.22L207.51 719.22L207.51 791.8Z" />
                    <path class="shp0"
                        d="M312.23 765.3C295.97 763.37 289.64 760.41 289.64 754.75C289.64 747.63 297.19 743.38 309.85 743.38C321.37 743.38 331.02 749.1 334.25 754.48L336.39 758.06L361.8 744.97L359.88 741.08C351.49 723.99 333.97 714.96 309.13 714.96C284.01 715.17 258.67 727.34 258.67 754.07C258.67 784.4 284.28 791.53 309.36 794.5C332.94 797.04 332.94 804.99 332.94 807.6C332.94 820.05 315.38 821.01 310.02 821.01C295.68 821.01 284.7 815 280.65 804.93L278.83 800.4L252.21 814.19L253.73 817.94C262.48 839.47 280.78 849.93 309.67 849.93C343.22 849.93 364.07 833.71 364.07 807.6C364.07 771.69 329.07 767.38 312.23 765.3Z" />
                    <path class="shp0" d="M381.21 846.88L412.34 846.88L412.34 719.05L381.21 719.05L381.21 846.88Z" />
                    <path class="shp0"
                        d="M562.38 846.88L660.3 846.88L660.3 815.91L593.51 815.91L593.51 797.93L657.91 797.93L657.91 768.16L593.51 768.16L593.51 749.68L660.3 749.68L660.3 719.05L562.38 719.05L562.38 846.88Z" />
                    <path class="shp0"
                        d="M732.87 765.3C716.61 763.37 710.26 760.41 710.26 754.75C710.26 747.63 717.82 743.38 730.47 743.38C742 743.38 751.65 749.1 754.88 754.48L757.02 758.06L782.42 744.97L780.51 741.08C772.12 723.99 754.59 714.96 729.75 714.96C704.64 715.17 679.3 727.34 679.3 754.07C679.3 784.4 704.9 791.53 729.99 794.5C753.57 797.04 753.57 804.99 753.57 807.6C753.57 820.05 736.02 821.01 730.64 821.01C716.31 821.01 705.32 815 701.27 804.93L699.46 800.4L672.83 814.19L674.36 817.94C683.1 839.47 701.4 849.93 730.29 849.93C763.85 849.93 784.69 833.71 784.69 807.6C784.69 771.69 749.7 767.38 732.87 765.3Z" />
                    <path class="shp0"
                        d="M853.7 765.3C837.43 763.37 831.1 760.41 831.1 754.75C831.1 747.63 838.66 743.38 851.31 743.38C862.83 743.38 872.48 749.1 875.71 754.48L877.84 758.06L903.25 744.97L901.34 741.08C892.96 723.99 875.43 714.96 850.59 714.96C825.47 715.17 800.13 727.34 800.13 754.07C800.13 784.4 825.73 791.53 850.83 794.5C874.4 797.04 874.4 804.99 874.4 807.6C874.4 820.05 856.85 821.01 851.48 821.01C837.14 821.01 826.16 815 822.11 804.93L820.29 800.4L793.67 814.19L795.19 817.94C803.94 839.47 822.24 849.93 851.14 849.93C884.69 849.93 905.53 833.71 905.53 807.6C905.53 771.69 870.53 767.38 853.7 765.3Z" />
                    <path fill-rule="evenodd" class="shp0"
                        d="M1038.23 719.05L1095.58 846.88L1061.37 846.88L1051.35 824.45L994.88 824.45L984.68 846.88L950.66 846.88L1008.02 719.05L1038.23 719.05ZM1023.11 759.55L1007.79 794.67L1038.45 794.67L1023.11 759.55Z" />
                    <path fill-rule="evenodd" class="shp0"
                        d="M1220.11 781.87C1220.42 800.25 1214 817.5 1202.51 829.2C1191.14 840.76 1175.12 846.88 1156.2 846.88L1105.02 846.88L1105.02 719.05L1156.2 719.05C1199.59 719.05 1219.56 750.6 1220.11 781.87ZM1180.09 807.57C1186.09 801.41 1189.25 792.29 1188.98 781.88C1188.55 766.08 1179.7 749.15 1156.2 749.15L1136.16 749.15L1136.16 816.43L1156.2 816.43C1166.32 816.43 1174.37 813.46 1180.09 807.57Z" />
                    <path class="shp0"
                        d="M1290.12 803.84L1257.29 719.05L1222.47 719.05L1275.58 847.39L1304.8 847.39L1357.93 719.05L1323.12 719.05L1290.12 803.84Z" />
                    <path class="shp0" d="M1369.3 846.88L1400.42 846.88L1400.42 719.05L1369.3 719.05L1369.3 846.88Z" />
                    <path class="shp0"
                        d="M1476.55 765.3C1460.29 763.37 1453.96 760.41 1453.96 754.75C1453.96 747.63 1461.52 743.38 1474.16 743.38C1485.69 743.38 1495.33 749.1 1498.56 754.48L1500.7 758.06L1526.11 744.97L1524.2 741.08C1515.82 723.99 1498.27 714.96 1473.44 714.96C1448.34 715.17 1422.99 727.34 1422.99 754.07C1422.99 784.4 1448.59 791.53 1473.68 794.5C1497.27 797.04 1497.27 804.99 1497.27 807.6C1497.27 820.05 1479.71 821.01 1474.33 821.01C1460 821.01 1449.03 815 1444.97 804.93L1443.15 800.4L1416.52 814.19L1418.05 817.94C1426.8 839.47 1445.1 849.93 1473.99 849.93C1507.55 849.93 1528.4 833.71 1528.4 807.6C1528.4 771.69 1493.38 767.38 1476.55 765.3Z" />
                    <path fill-rule="evenodd" class="shp0"
                        d="M1652.34 734.88C1664.48 747.17 1671.35 764.96 1671.15 783.69C1670.78 816.49 1650.4 849.59 1605.71 849.59C1560.37 849.59 1540.09 816.57 1540.09 783.81C1540.09 751.47 1560.63 716.67 1605.71 716.67C1624.41 716.67 1640.55 722.96 1652.34 734.88ZM1640.19 783.91C1640.38 772.49 1636.61 762.02 1629.87 755.15C1623.85 749.04 1615.74 745.93 1605.71 745.93C1595.59 745.93 1587.38 749.1 1581.27 755.35C1574.48 762.32 1570.76 772.77 1571.05 784.04C1571.27 792.52 1574.42 820.17 1605.71 820.17C1630.68 820.17 1639.88 801.43 1640.19 783.91Z" />
                    <path fill-rule="evenodd" class="shp0"
                        d="M1769.24 802.67L1801.67 839.23L1801.67 846.88L1768.54 846.88L1733.87 807.11L1718.75 807.11L1718.75 846.88L1687.44 846.88L1687.44 718.87L1691.86 718.87C1701.32 718.87 1710.75 718.92 1720.18 718.96C1729.61 719.01 1739.05 719.05 1748.47 719.05C1780.95 719.24 1795.73 741.92 1795.73 762.91C1795.73 782.48 1786.17 796.63 1769.24 802.67ZM1748.47 748.82L1718.75 748.82L1718.75 778.02L1748.47 778.02C1760.23 778.02 1764.42 770.47 1764.42 763.42C1764.42 756.37 1760.23 748.82 1748.47 748.82Z" />
                    <path class="shp0"
                        d="M1867.77 765.3C1851.52 763.37 1845.17 760.41 1845.17 754.75C1845.17 747.63 1852.73 743.38 1865.38 743.38C1876.91 743.38 1886.56 749.1 1889.8 754.48L1891.93 758.06L1917.34 744.97L1915.41 741.08C1907.04 723.99 1889.5 714.96 1864.67 714.96C1839.55 715.17 1814.21 727.34 1814.21 754.07C1814.21 784.4 1839.82 791.53 1864.92 794.5C1888.48 797.04 1888.48 804.99 1888.48 807.6C1888.48 820.05 1870.93 821.01 1865.55 821.01C1851.21 821.01 1840.24 815 1836.19 804.93L1834.36 800.4L1807.76 814.19L1809.26 817.94C1818 839.47 1836.3 849.93 1865.2 849.93C1898.76 849.93 1919.61 833.71 1919.61 807.6C1919.61 771.69 1884.62 767.38 1867.77 765.3Z" />
                </g>
                <path class="shp0"
                    d="M511.22 718.87L511.22 784.48L459.51 719.05L434.74 719.05L434.74 846.88L466.05 846.88L466.05 775.15L520.65 845.34L521.87 846.88L528.59 846.88L542.52 846.88L542.52 718.87L511.22 718.87Z" />
            </g>
            <g>
                <g>
                    <path class="shp1"
                        d="M1666.5 241.92C1575.02 231.04 1562.41 213.56 1562.41 196.31C1562.41 165.29 1596.81 146.77 1654.41 146.77C1705.96 146.77 1752.29 172.63 1767.28 197.61L1780 218.85L1910.79 151.58L1899.37 128.32C1858.19 44.42 1772.32 0.07 1650.94 0.07C1527.76 1.03 1403.46 61.06 1403.46 193.04C1403.46 343.58 1536 378.64 1651.59 392.37C1760.28 404.06 1760.28 437.59 1760.28 450.21C1760.28 505.27 1679.86 509.54 1655.22 509.54C1588.51 509.54 1537.54 481.85 1518.88 435.45L1508.02 408.5L1371.06 479.49L1380.12 501.8C1422.99 607.37 1512.44 658.69 1653.59 658.69C1817.93 658.69 1920.03 578.8 1920.03 450.21C1920.03 294.24 1791.89 257.39 1666.5 241.92Z" />
                    <g>
                        <path class="shp0"
                            d="M935.74 251.22L1024.01 339.49L1203.67 158.59L1162.02 119.42L1292.04 109.23C1245.79 57.57 1167.83 4.31 1041.42 0.07L739.31 0.07L739.31 446.43L935.74 251.22Z" />
                        <path class="shp1"
                            d="M1352.23 208.94C1342.99 178.51 1324.5 147.08 1296.76 114.65L1293.19 246.25L1251.53 203.97L1023.39 431.49L935.74 344.46L739.31 536.63L739.31 658.38L783.37 658.38L783.37 531.57L861.07 456.05L861.07 658.38L914.62 658.38L914.62 400.41L936.37 379.9L992.31 431.19L992.31 658.38L1042.67 658.38C1043.52 658.46 1044.74 658.53 1046.32 658.6L1046.32 445.79L1124.01 370.26L1124.01 650.39C1140.77 646.49 1159.1 640.82 1178.11 632.66L1178.11 313.38L1255.81 237.85L1255.81 584.38C1270.24 572.02 1284.29 557.66 1297.55 540.9C1378.15 445.17 1396.38 334.52 1352.23 208.94Z" />
                    </g>
                </g>
                <path class="shp1"
                    d="M534.48 0.07L347.05 266.76L162.43 0.07L0.17 0.07L0.17 658.38L192.26 658.38L192.26 335.76L348.45 553.96L504.64 334.48L504.64 658.38L607.93 658.38L696.72 658.38L696.72 0.07L534.48 0.07Z" />
            </g>
        </g>
    </g>
</svg>
